<svg version="1.1" xmlns="http://www.w3.org/2000/svg" xmlns:xlink="http://www.w3.org/1999/xlink"
    width="24px" height="24px" viewBox="0,0,256,256">
    <g fill="#ffffff" fill-rule="evenodd" stroke="none" stroke-width="1" stroke-linecap="butt"
        stroke-linejoin="miter" stroke-miterlimit="10" stroke-dasharray="" stroke-dashoffset="0"
        font-family="none" font-weight="none" font-size="none" text-anchor="none"
        style="mix-blend-mode: normal">
        <g transform="scale(10.66667,10.66667)">
            <path
                d="M12,3.61914c-0.371,0 -0.72475,0.16141 -0.96875,0.44141l-3.99609,4.58008l-3.8125,-2.4082c-0.427,-0.269 -0.97253,-0.26433 -1.39453,0.01367c-0.422,0.278 -0.6425,0.77834 -0.5625,1.27734l1.8125,11.32227c0.141,0.884 0.90483,1.53516 1.79883,1.53516h14.24609c0.894,0 1.65783,-0.65116 1.79883,-1.53516l1.8125,-11.32227c0.08,-0.499 -0.1405,-0.99934 -0.5625,-1.27734c-0.422,-0.278 -0.96753,-0.28267 -1.39453,-0.01367l-3.8125,2.4082l-3.99609,-4.58008c-0.244,-0.28 -0.59775,-0.44141 -0.96875,-0.44141zM12,5.23242l3.95508,4.5332c0.417,0.477 1.12025,0.58119 1.65625,0.24219l3.56641,-2.25195l-1.17969,7.37305h-15.99609l-1.17969,-7.37305l3.56641,2.25195c0.536,0.339 1.23925,0.23481 1.65625,-0.24219zM4.24219,16.62891h15.51562l-0.31641,1.98047c-0.025,0.156 -0.16036,0.27148 -0.31836,0.27148h-14.24609c-0.158,0 -0.29336,-0.11548 -0.31836,-0.27148z"></path>
        </g>
    </g>
</svg>