<svg width="14" height="16" viewBox="0 0 14 16" fill="none" xmlns="http://www.w3.org/2000/svg">
<path fill-rule="evenodd" clip-rule="evenodd" d="M13.0672 7.19219C12.95 7.30955 12.7909 7.37549 12.625 7.37549C12.4591 7.37549 12.3 7.30955 12.1828 7.19219L7.625 2.63359V14.875C7.625 15.2202 7.34518 15.5 7 15.5C6.65482 15.5 6.375 15.2202 6.375 14.875V2.63359L1.81719 7.19219C1.57297 7.4364 1.17703 7.4364 0.932812 7.19219C0.688599 6.94797 0.688599 6.55203 0.932812 6.30781L6.55781 0.682812C6.67504 0.565452 6.83412 0.499508 7 0.499508C7.16588 0.499508 7.32496 0.565452 7.44219 0.682812L13.0672 6.30781C13.1845 6.42504 13.2505 6.58412 13.2505 6.75C13.2505 6.91588 13.1845 7.07496 13.0672 7.19219Z" fill="white"/>
</svg>
